<svg version="1.1" id="Layer_1" xmlns="http://www.w3.org/2000/svg" xmlns:xlink="http://www.w3.org/1999/xlink" x="0px" y="0px"
	 width="100%" viewBox="0 0 1024 1024" enable-background="new 0 0 1024 1024" xml:space="preserve">
<path fill="#FEFEFE" opacity="1.000000" stroke="none" 
	d="
M567.000000,1025.000000 
	C378.000000,1025.000000 189.500000,1025.000000 1.000000,1025.000000 
	C1.000000,683.666687 1.000000,342.333344 1.000000,1.000000 
	C342.333344,1.000000 683.666687,1.000000 1025.000000,1.000000 
	C1025.000000,342.333344 1025.000000,683.666687 1025.000000,1025.000000 
	C872.500000,1025.000000 720.000000,1025.000000 567.000000,1025.000000 
M341.202789,191.161804 
	C341.202789,191.161804 341.217896,191.325668 341.854095,191.228729 
	C342.648865,190.559967 343.443634,189.891220 344.147095,189.150391 
	C344.147095,189.150391 344.154907,189.266434 344.841278,189.146484 
	C346.260223,188.082947 347.679138,187.019424 349.713745,185.494431 
	C346.798248,183.666946 344.468384,182.206528 342.137390,180.853470 
	C342.137390,180.853470 342.228210,180.796188 341.948181,180.198288 
	C340.020782,179.039276 338.093353,177.880264 336.141418,176.856522 
	C336.141418,176.856522 336.240601,176.761307 335.941040,176.176651 
	C329.806580,172.905975 323.855469,169.211090 317.495422,166.462372 
	C307.534180,162.157288 297.145142,159.416748 285.361694,161.117920 
	C284.906494,161.267624 284.451263,161.417313 283.263489,161.458405 
	C280.371490,162.593369 277.479523,163.728333 274.245300,164.846985 
	C274.245300,164.846985 274.000519,165.086670 273.312439,165.145035 
	C260.523956,172.699402 256.742523,187.619080 264.827362,198.833740 
	C264.827362,198.833740 265.064789,198.997589 265.203339,199.651642 
	C267.402222,201.535583 269.601135,203.419525 271.838318,205.118530 
	C271.838318,205.118530 271.735809,205.277145 272.029388,205.879639 
	C275.193665,207.271103 278.233246,209.305984 281.542877,209.947662 
	C300.356171,213.595123 316.684113,206.901855 332.093475,197.106247 
	C332.093475,197.106247 332.095581,197.202835 332.797882,197.123367 
	C334.871948,195.757584 336.946014,194.391785 339.001221,193.000000 
	C339.001221,193.000000 339.025055,193.023239 339.622406,192.922226 
	C340.179565,192.381119 340.736694,191.840012 341.202789,191.161804 
M811.238953,324.282288 
	C811.317627,324.601501 811.396240,324.920685 811.455750,325.944458 
	C811.465332,326.883820 811.474915,327.823181 811.094421,329.517761 
	C811.234497,339.757568 811.374573,349.997406 811.490051,360.941986 
	C811.491638,361.881927 811.493225,362.821869 811.100708,364.515625 
	C811.044556,373.315094 810.903931,382.115082 810.960571,390.913818 
	C811.002014,397.356567 811.302612,403.797668 811.446655,410.745636 
	C811.449646,411.084045 811.452698,411.422424 811.104431,412.358185 
	C811.160583,413.262360 811.216736,414.166565 811.443420,415.809784 
	C819.715454,416.379333 827.987488,416.948853 836.932129,417.564697 
	C836.932129,406.227875 837.026855,396.283234 836.879578,386.342194 
	C836.829590,382.969269 837.820190,381.394836 841.426941,381.703094 
	C844.571045,381.971802 847.773132,382.075226 850.908752,381.794769 
	C854.452942,381.477692 856.429749,382.940613 857.921387,386.015778 
	C862.202332,394.840820 866.537537,403.646332 871.167847,412.290009 
	C872.198792,414.214569 874.452759,416.672058 876.270935,416.782196 
	C884.334412,417.270630 892.444275,416.993805 901.407471,416.993805 
	C900.397156,414.372070 899.907593,412.654388 899.106995,411.096527 
	C893.861633,400.888763 888.780884,390.584473 883.137817,380.599121 
	C881.037537,376.882660 881.440613,375.009796 884.637390,372.338989 
	C904.071106,356.102417 899.415100,324.658813 875.926819,315.262543 
	C858.182556,308.164124 839.656067,309.708557 821.305542,312.766937 
	C815.445984,313.743530 812.110291,317.816284 811.238953,324.282288 
M603.956665,130.271332 
	C601.545654,131.397232 599.078918,132.418304 596.732605,133.665863 
	C580.220520,142.445480 570.884644,156.228455 570.377380,174.866516 
	C569.866882,193.622910 578.868347,207.671219 594.959534,217.093262 
	C612.876831,227.584579 632.096313,227.346085 651.648865,223.458069 
	C677.885559,218.240967 701.096802,206.040924 723.407715,191.908340 
	C731.213928,186.963608 738.687683,181.494202 746.633484,176.044800 
	C744.866943,174.504440 743.934204,173.546341 742.864319,172.779633 
	C721.823547,157.701431 699.831238,144.244324 675.456787,135.237854 
	C652.450745,126.737000 629.003601,122.033356 603.956665,130.271332 
M256.738129,269.340210 
	C253.349228,289.279846 263.745544,308.929535 283.230865,319.147247 
	C301.404663,328.677216 320.515076,327.734131 339.705994,323.515594 
	C372.401672,316.328430 400.383362,299.435059 427.191406,280.256470 
	C428.873199,279.053284 430.414124,277.653168 432.406433,276.030365 
	C406.516113,257.542694 380.100800,241.644073 350.204254,232.360397 
	C334.309143,227.424530 318.071503,225.435562 301.429718,227.940002 
	C278.378754,231.408997 260.661102,247.451965 256.738129,269.340210 
M725.836731,827.356689 
	C732.648193,822.629639 739.459656,817.902588 747.134399,812.576477 
	C740.183350,807.824219 734.258972,803.572693 728.138672,799.624756 
	C703.229309,783.557068 677.199524,769.976135 647.658447,764.570374 
	C628.945923,761.146118 610.786072,762.489807 593.951599,772.203552 
	C577.960632,781.430542 568.342407,800.160400 570.599182,817.070679 
	C573.526123,839.003113 587.648010,854.416077 609.536377,860.021240 
	C626.179810,864.283386 642.570923,862.711731 658.875183,858.464172 
	C682.827576,852.224304 704.387146,840.747742 725.836731,827.356689 
M295.501984,664.939941 
	C293.446289,665.602966 291.370392,666.209656 289.338013,666.937744 
	C269.146820,674.170532 256.112488,691.947632 256.107941,712.224792 
	C256.103424,732.394409 269.301208,750.102722 289.503021,757.389038 
	C305.067169,763.002625 320.840363,762.744202 336.741577,759.493652 
	C364.603851,753.797913 389.338959,741.007690 412.849915,725.552124 
	C419.357117,721.274414 425.627716,716.636841 432.277924,711.974304 
	C431.045105,710.807251 430.409302,710.049622 429.630737,709.490845 
	C404.894409,691.736084 378.839630,676.455994 349.422760,667.750793 
	C332.000427,662.595154 314.332886,659.983887 295.501984,664.939941 
M245.580185,465.930206 
	C236.295639,462.320953 227.187408,458.134766 217.687149,455.231323 
	C201.554962,450.300995 185.098663,448.537506 168.629379,454.013123 
	C149.726715,460.297821 138.056900,475.604919 138.009872,493.930115 
	C137.962769,512.285278 149.513947,527.611511 168.259796,534.163025 
	C181.246429,538.701721 194.390747,538.310913 207.622467,535.565918 
	C232.968567,530.307678 255.421173,518.580261 276.789948,504.484161 
	C281.587769,501.319214 286.180603,497.843597 291.451935,494.095703 
	C276.706757,483.106384 261.878571,474.042908 245.580185,465.930206 
M377.626526,153.189499 
	C363.393768,173.850006 369.898468,198.935272 392.281433,210.164490 
	C404.770569,216.430069 417.829620,216.928299 431.253265,214.604813 
	C453.823334,210.698135 473.884583,200.816696 492.915985,188.561859 
	C499.043213,184.616394 504.948822,180.326752 511.658966,175.710846 
	C507.099731,172.492691 503.406525,169.727066 499.558899,167.196213 
	C477.294189,152.551086 454.169647,139.784210 427.144623,136.487503 
	C408.378265,134.198212 391.270294,137.662781 377.626526,153.189499 
M309.484344,364.019714 
	C290.887512,351.547394 271.574615,340.515289 249.777908,334.533020 
	C234.403152,330.313293 218.962158,328.714752 203.714417,334.827576 
	C188.380585,340.974854 178.721130,351.896027 177.891220,368.908081 
	C177.042053,386.314728 185.572937,398.415680 200.897232,405.909271 
	C215.303391,412.953918 230.289856,411.932617 245.324600,408.398071 
	C268.203461,403.019501 288.406799,391.910370 307.703979,378.937714 
	C311.369812,376.473297 314.816223,373.682495 318.860687,370.672607 
	C315.466248,368.268402 312.765625,366.355621 309.484344,364.019714 
M313.922089,621.414368 
	C315.391663,620.237122 316.861237,619.059814 318.404846,617.823242 
	C308.609253,608.777222 282.051300,593.348694 265.466461,586.716309 
	C251.108917,580.974487 236.414612,576.869568 220.783783,578.005676 
	C207.776749,578.951050 195.812088,583.017090 187.046921,593.156555 
	C168.476074,614.639404 178.717682,646.296082 206.677689,654.949097 
	C220.581436,659.252014 234.325226,657.911377 248.044861,654.397217 
	C272.128906,648.228149 293.300354,636.155212 313.922089,621.414368 
M652.280090,583.769104 
	C646.456482,596.075745 640.632812,608.382385 634.348999,621.661560 
	C632.875244,618.566650 631.831604,616.363708 630.778564,614.165344 
	C624.886597,601.864319 618.802551,589.650513 613.168335,577.232544 
	C609.660583,569.501404 598.852722,568.020630 592.288208,569.398010 
	C585.407166,570.841797 582.428589,574.868164 581.857422,583.786560 
	C580.473999,605.386658 579.223938,626.995361 577.926819,648.601013 
	C577.462097,656.341980 577.016357,664.084106 576.563538,671.798828 
	C585.440552,671.798828 593.653992,671.798828 602.142273,671.798828 
	C603.165161,652.259827 604.165833,633.146484 605.166443,614.033142 
	C605.671082,613.967773 606.175720,613.902405 606.680359,613.837036 
	C610.743408,622.909241 614.860474,631.957642 618.856689,641.059143 
	C624.606628,654.155151 624.566895,654.060303 638.638184,653.779480 
	C642.137390,653.709595 644.071594,652.528992 645.463562,649.319275 
	C649.897766,639.094666 654.574524,628.974854 659.196472,618.832336 
	C659.951355,617.175720 660.903564,615.609009 661.764587,614.000793 
	C662.143677,614.130676 662.522705,614.260559 662.901794,614.390381 
	C663.920044,633.551941 664.938354,652.713501 665.963867,672.011169 
	C674.747559,672.011169 682.788208,672.011169 691.147766,672.011169 
	C691.147766,670.334839 691.202942,669.188232 691.139771,668.048157 
	C689.464111,637.792908 687.879028,607.531616 685.885498,577.297180 
	C685.734314,575.004639 683.123230,571.908752 680.879517,570.881592 
	C669.232605,565.549500 659.706726,569.884338 652.280090,583.769104 
M457.053680,781.411804 
	C450.708344,779.430481 444.447906,777.098938 438.001099,775.536255 
	C421.533142,771.544617 405.301605,771.516296 389.957520,779.984680 
	C364.588104,793.985840 363.052032,827.843811 387.104797,843.959900 
	C402.182343,854.062256 418.863922,854.150085 435.696442,850.449707 
	C462.695221,844.514343 486.278595,831.316711 508.180603,814.853516 
	C509.038635,814.208557 509.661346,813.250427 510.732300,812.062683 
	C494.057831,799.694153 476.710480,789.333008 457.053680,781.411804 
M885.535889,631.500000 
	C885.535645,612.834473 885.371216,594.166626 885.642517,575.505066 
	C885.716980,570.383301 883.884338,568.561646 879.015076,568.820129 
	C875.026917,569.031738 871.011108,568.733582 867.024536,568.960266 
	C861.141052,569.294678 860.136597,570.468933 860.143738,576.295227 
	C860.162964,591.960571 860.209473,607.625916 860.220337,623.291260 
	C860.221558,625.021362 860.061890,626.751587 859.902344,629.997559 
	C858.091431,627.514648 857.115845,626.282776 856.252136,624.976868 
	C845.410278,608.582642 834.403992,592.292603 823.859070,575.709167 
	C820.471375,570.381348 816.197815,568.159424 810.215576,568.437561 
	C807.886597,568.545715 805.556091,568.663574 803.233704,568.862976 
	C795.835938,569.498047 795.347839,569.916931 795.338928,577.293396 
	C795.302551,607.457764 795.335388,637.622253 795.366028,667.786682 
	C795.367371,669.084595 795.598999,670.382263 795.761108,672.074280 
	C800.453613,672.074280 804.922363,672.217529 809.378540,672.041687 
	C816.618103,671.756165 820.016968,668.480408 820.161987,661.158691 
	C820.432312,647.503906 820.388794,633.843018 820.510864,620.184998 
	C820.526001,618.492310 820.753906,616.801514 820.973328,613.931030 
	C822.588989,615.751587 823.410156,616.491089 824.008606,617.380432 
	C828.934998,624.702332 833.787720,632.073792 838.726074,639.387573 
	C844.690063,648.220215 850.559692,657.123108 856.769165,665.781128 
	C861.012390,671.697693 870.331543,673.969971 877.588318,671.413940 
	C883.737000,669.248108 885.610352,665.769531 885.595947,656.498352 
	C885.583496,648.498901 885.556885,640.499451 885.535889,631.500000 
M805.319458,523.771057 
	C811.472412,515.328674 814.320679,505.823303 815.405945,495.465363 
	C818.056091,470.173004 804.044800,448.517181 779.802979,440.838593 
	C765.639648,436.352325 751.213013,436.891907 736.718567,437.979767 
	C724.567505,438.891724 720.063721,443.643951 720.050293,455.718506 
	C720.020264,482.717255 720.042542,509.716064 720.043579,536.714844 
	C720.043640,538.354431 720.043579,539.994019 720.043579,541.596619 
	C721.612488,542.101868 722.707092,542.743225 723.815430,542.767700 
	C738.599365,543.094727 753.445862,544.277954 768.153442,543.331238 
	C782.706787,542.394409 795.302185,535.816406 805.319458,523.771057 
M762.476990,608.890564 
	C751.692627,608.890564 740.908264,608.890564 729.794434,608.890564 
	C729.794434,603.386536 729.794434,598.490356 729.794434,592.937622 
	C731.867371,592.937622 733.652039,592.939087 735.436707,592.937378 
	C748.600159,592.924561 761.767822,592.718506 774.924866,593.001587 
	C779.579346,593.101685 781.759949,591.280945 782.286682,586.979736 
	C782.608337,584.352844 783.038940,581.685120 782.891113,579.065674 
	C782.536255,572.775635 778.983032,569.158386 772.646606,569.114441 
	C754.319092,568.987244 735.987915,568.977173 717.662109,569.218140 
	C709.880127,569.320496 705.827637,573.347046 704.683044,581.080627 
	C704.416138,582.884094 704.323364,584.728394 704.323181,586.553894 
	C704.320435,613.547241 704.341858,640.540588 704.379517,667.533936 
	C704.381531,668.972534 704.578369,670.410828 704.692932,671.963013 
	C730.778809,671.963013 756.493408,671.963013 782.693054,671.963013 
	C782.693054,665.516785 782.546753,659.543091 782.745483,653.580933 
	C782.873596,649.738586 781.523132,648.294312 777.552429,648.354980 
	C765.225159,648.543274 752.892883,648.385010 740.562561,648.397644 
	C729.329346,648.409119 729.494202,648.428650 729.401428,637.406982 
	C729.367554,633.375793 730.437622,631.882690 734.694885,631.959106 
	C747.853882,632.195496 761.020691,632.077026 774.182983,631.947144 
	C775.837646,631.930847 778.567139,631.444885 778.952637,630.456482 
	C781.028198,625.134827 782.216675,619.542358 779.486023,614.019226 
	C777.219666,609.435120 773.048523,608.677795 768.463562,608.890381 
	C766.800964,608.967407 765.131653,608.898743 762.476990,608.890564 
M831.225403,515.076599 
	C836.890503,533.953308 850.364441,543.252869 869.214905,545.468628 
	C895.716614,548.583923 920.761902,537.095398 923.024719,504.691101 
	C924.424866,484.640228 923.659302,464.435791 923.725952,444.299805 
	C923.730103,443.052460 922.795837,441.053131 921.809570,440.673767 
	C915.720703,438.331512 909.478088,437.877045 903.444824,440.917511 
	C898.421631,443.448914 898.291565,448.273682 898.289917,453.008362 
	C898.285461,466.163452 898.476196,479.320221 898.306763,492.472687 
	C898.245056,497.266815 897.881042,502.167786 896.784607,506.814667 
	C894.517517,516.422791 888.229919,521.057556 877.997986,521.493713 
	C867.030884,521.961243 859.402649,517.512939 856.519958,508.163666 
	C855.221375,503.951874 854.781006,499.343628 854.722168,494.905060 
	C854.508179,478.755341 854.667480,462.600922 854.542908,446.449402 
	C854.528809,444.616669 854.164612,441.752289 853.015259,441.137390 
	C847.315125,438.088135 841.171814,438.013824 835.196472,440.496460 
	C830.141479,442.596710 829.020386,447.087433 829.003723,452.015808 
	C828.975037,460.508270 828.731079,469.010040 829.038574,477.491211 
	C829.483582,489.765137 830.339355,502.024170 831.225403,515.076599 
M773.069153,356.358307 
	C768.725159,346.091522 764.475586,335.783203 759.990845,325.578247 
	C758.185913,321.471252 756.091003,317.796967 750.800232,316.662048 
	C736.797302,313.658142 729.773010,316.718536 724.245728,329.938354 
	C713.657715,355.262146 703.359985,380.707428 692.975098,406.115906 
	C691.687378,409.266632 690.602600,412.500244 689.156982,416.418457 
	C697.516174,416.418457 704.948364,416.555878 712.364197,416.270142 
	C713.475830,416.227325 714.953247,414.385529 715.502197,413.061157 
	C717.475281,408.301086 719.202942,403.433258 720.860596,398.550934 
	C721.718933,396.022919 723.033630,394.875732 725.904541,394.919922 
	C737.063110,395.091736 748.228088,394.899109 759.383789,395.148865 
	C760.850891,395.181702 762.960205,396.668579 763.601013,398.032257 
	C765.859436,402.838379 767.502625,407.929718 769.616089,412.810242 
	C770.217834,414.199646 771.587769,416.241669 772.667908,416.281311 
	C780.697144,416.575745 788.742188,416.441040 797.699402,416.441040 
	C789.343811,396.088379 781.336426,376.583710 773.069153,356.358307 
M520.234253,774.808167 
	C540.513855,768.868347 558.490417,758.709045 575.578735,745.388000 
	C557.605530,732.084167 539.388245,721.397705 518.465637,715.844238 
	C507.510223,712.936340 496.590118,712.009827 485.491180,715.111328 
	C471.360779,719.059998 461.332733,730.612427 460.872772,743.760864 
	C460.353638,758.600525 468.755402,770.198364 483.585876,775.253845 
	C495.581238,779.342773 507.506927,778.147522 520.234253,774.808167 
M566.897278,236.594055 
	C551.085876,225.926727 534.522888,216.787827 515.691772,212.673264 
	C502.955231,209.890381 490.238922,209.412827 478.226624,215.780075 
	C467.954346,221.225021 461.617554,229.503143 461.023987,241.409988 
	C460.390625,254.114731 466.138885,263.530090 476.839569,269.943512 
	C485.256470,274.988190 494.544189,276.549469 504.229645,275.481384 
	C528.277344,272.829590 548.832703,261.874115 568.238281,248.275391 
	C570.601196,246.619553 572.780518,244.701813 575.423035,242.605438 
	C572.365417,240.443970 569.929688,238.722153 566.897278,236.594055 
M674.248108,321.147339 
	C660.826599,314.473236 646.787720,313.517853 632.438965,317.110199 
	C613.039917,321.966888 599.831299,333.779358 595.362793,353.501373 
	C590.741028,373.899353 595.463318,392.088593 612.419556,405.438995 
	C625.358643,415.626495 640.802124,418.679810 656.793823,416.324524 
	C664.808044,415.144165 672.474731,411.439178 680.188110,408.578247 
	C681.221191,408.195068 682.534180,405.587128 682.139832,404.809662 
	C679.184875,398.983704 675.833313,393.358887 672.643066,387.736542 
	C670.119751,388.989807 668.825317,389.771729 667.434814,390.301880 
	C653.934448,395.448822 640.651245,396.408020 628.860840,386.431244 
	C619.561340,378.562195 617.144897,363.674835 622.571106,352.471466 
	C627.907349,341.453918 641.021545,335.300293 654.129883,337.332092 
	C661.784729,338.518585 668.203735,341.906189 673.390137,347.361450 
	C684.400024,339.057098 687.720825,328.211792 674.248108,321.147339 
M519.843079,146.285355 
	C540.591797,144.066147 557.486877,133.640869 574.347290,121.244675 
	C558.509399,109.792625 542.957397,99.850372 523.910034,96.950836 
	C514.377075,95.499672 505.360626,96.469948 497.015717,101.593979 
	C482.005035,110.811028 481.980072,132.289444 497.020782,141.464676 
	C503.746918,145.567810 511.063263,147.374893 519.843079,146.285355 
M711.958374,764.614136 
	C719.784973,769.855042 728.360107,771.588501 737.657349,770.292725 
	C753.337280,768.107239 767.281555,761.678040 780.303772,752.992676 
	C783.657288,750.755981 786.853149,748.282837 790.562012,745.599548 
	C777.948914,735.962585 765.369019,728.336548 751.035950,723.842102 
	C742.700500,721.228333 734.289917,719.299500 725.507874,721.026428 
	C715.048828,723.083008 706.611450,728.116028 703.301941,738.779358 
	C700.182129,748.831421 703.108826,757.483582 711.958374,764.614136 
M158.581680,585.065796 
	C166.566849,580.173645 174.552017,575.281494 183.368866,569.879883 
	C166.806335,557.437195 150.586182,548.094421 131.342972,544.921021 
	C124.076538,543.722656 117.047874,544.298157 110.321327,547.192078 
	C102.226387,550.674622 96.413780,556.363037 94.964783,565.409973 
	C92.673950,579.713013 102.254669,591.651733 117.612122,594.005981 
	C132.144058,596.233704 145.126816,591.305603 158.581680,585.065796 
M347.537628,803.844177 
	C347.033478,802.704590 346.846893,801.142517 345.977417,800.488953 
	C333.397705,791.032043 319.849182,783.404175 304.519775,779.334412 
	C293.910553,776.517700 283.400574,776.332642 273.574524,781.954834 
	C265.889893,786.351807 261.211243,792.930237 261.004150,802.111694 
	C260.793457,811.452576 264.959412,818.428711 272.887024,823.112732 
	C280.152588,827.405701 288.082764,828.771790 296.420715,827.574707 
	C315.569519,824.825500 331.881897,815.875793 347.537628,803.844177 
M104.385353,399.807434 
	C90.050964,411.576874 91.495773,431.698120 107.354156,440.097809 
	C114.990326,444.142426 123.169441,444.933319 131.627563,443.533875 
	C147.240875,440.950623 160.916214,433.868011 173.935730,425.291779 
	C176.792419,423.410004 179.488541,421.284454 182.841141,418.847778 
	C167.055115,407.454132 151.439804,397.754852 132.772797,394.432404 
	C123.011864,392.695099 113.495338,393.576477 104.385353,399.807434 
M721.999451,266.709595 
	C724.958252,267.127075 727.923279,267.944366 730.874939,267.898651 
	C753.867432,267.542694 772.206665,256.122314 791.554077,242.279190 
	C780.868103,236.138458 771.523987,230.161713 761.646179,225.260620 
	C751.452393,220.202713 740.533875,217.184494 728.890930,217.921143 
	C716.867920,218.681808 706.430847,225.874344 703.378357,235.622101 
	C699.162659,249.084534 706.273010,261.342407 721.999451,266.709595 
M489.457001,855.111694 
	C482.222595,868.541748 486.648987,882.372986 500.357513,888.990479 
	C508.005676,892.682495 516.136169,893.078918 524.275818,891.567871 
	C541.471130,888.375732 556.480835,880.313171 570.478027,870.122009 
	C571.660095,869.261414 573.171082,868.852600 574.529297,868.233948 
	C557.350830,854.884644 540.783386,844.725403 520.846375,842.362488 
	C508.688690,840.921570 497.695679,844.089050 489.457001,855.111694 
M315.766998,427.743347 
	C308.051514,424.312042 300.508423,420.390045 292.567688,417.599731 
	C285.826324,415.230865 278.755951,415.774170 272.200317,419.197968 
	C265.814026,422.533325 262.653198,427.838928 262.965118,435.030365 
	C263.261719,441.868195 266.783691,447.007721 273.057281,449.172058 
	C277.780273,450.801422 283.190247,451.821594 288.092682,451.281647 
	C301.148346,449.843628 312.386353,443.625366 322.762573,435.819031 
	C323.348022,435.378601 323.710571,434.641815 324.423645,433.726105 
	C321.535828,431.703735 318.967499,429.905121 315.766998,427.743347 
M232.821472,704.710510 
	C229.117645,702.491211 225.532776,700.035278 221.685684,698.100952 
	C213.172424,693.820496 204.404007,690.300720 194.550156,691.049133 
	C184.117538,691.841553 176.287125,698.878967 175.972885,707.786804 
	C175.645142,717.077515 182.585098,724.911926 193.039795,725.797363 
	C210.434036,727.270691 224.168976,718.768982 237.869949,708.739502 
	C235.965256,707.188477 234.693878,706.153137 232.821472,704.710510 
M204.705414,296.463684 
	C216.905197,293.673279 227.530624,287.863007 237.690475,279.727325 
	C227.400818,271.676178 217.034653,265.026855 204.583618,263.138245 
	C199.039001,262.297211 192.955399,262.679840 187.514328,264.067383 
	C180.485367,265.859833 176.107895,272.648285 175.952438,279.320404 
	C175.790512,286.271301 179.553894,292.834930 186.777222,295.030060 
	C192.148239,296.662262 198.144836,296.235992 204.705414,296.463684 
M289.911133,537.244507 
	C284.069885,537.975830 277.944000,537.849365 272.463501,539.667908 
	C266.382568,541.685791 263.298706,547.147217 262.989960,553.677429 
	C262.688141,560.060608 265.644165,564.883972 270.934875,568.233459 
	C276.519135,571.768860 282.873260,573.248108 289.092987,571.411926 
	C297.291656,568.991577 305.289093,565.726929 313.096710,562.211487 
	C317.153900,560.384705 320.616943,557.238281 324.834290,554.355896 
	C313.951691,546.104065 303.205566,540.081482 289.911133,537.244507 
M621.954651,732.554871 
	C626.639832,734.397400 631.211609,737.378540 636.032410,737.858459 
	C648.141113,739.064087 658.657532,733.686829 668.754639,727.708374 
	C672.083923,725.737061 675.184326,723.379272 678.871460,720.870239 
	C669.871155,713.829407 661.065979,708.400391 651.009277,705.863892 
	C644.892212,704.321106 638.134033,703.288879 632.004578,704.234863 
	C617.650513,706.450073 612.482422,720.975037 621.954651,732.554871 
M620.568604,277.825409 
	C625.615112,283.117676 631.978943,285.431366 639.065857,284.813171 
	C653.891357,283.519867 666.429688,276.885925 679.134766,266.714172 
	C670.210144,262.007996 662.556335,257.297089 654.360657,253.889191 
	C648.966370,251.646133 642.786804,250.246902 636.966553,250.271500 
	C620.471863,250.341202 612.112793,264.172241 620.568604,277.825409 
M531.104736,513.709900 
	C531.491699,506.653503 531.878662,499.597107 532.265625,492.540710 
	C535.863220,497.435822 538.130859,502.676331 540.859131,507.664917 
	C541.694336,509.192047 543.728516,510.791412 545.334839,510.927582 
	C546.520203,511.028046 548.341370,509.039429 549.117004,507.577301 
	C551.749023,502.615662 554.042542,497.474396 556.465332,492.401733 
	C556.880920,492.527069 557.296570,492.652405 557.712158,492.777740 
	C558.242188,501.295227 558.772156,509.812714 559.296387,518.237183 
	C561.821960,518.237183 563.863220,518.237183 566.097839,518.237183 
	C565.298828,506.349091 564.597595,494.888092 563.666138,483.445801 
	C563.557983,482.117249 562.320007,479.975800 561.348999,479.820953 
	C559.615356,479.544464 557.417603,480.085083 555.921143,481.061462 
	C554.678162,481.872467 554.080200,483.758545 553.341919,485.240845 
	C550.669617,490.605927 548.058716,496.001587 545.174622,501.896729 
	C544.484497,500.683716 544.144226,500.144135 543.859741,499.576630 
	C540.954773,493.780273 538.305359,487.832581 534.997070,482.276947 
	C534.104980,480.778839 531.272339,480.077972 529.225708,479.809357 
	C528.451721,479.707794 526.664124,481.797516 526.558228,482.996155 
	C525.523132,494.707001 524.746094,506.440643 523.863708,518.608704 
	C527.352356,518.249756 531.555603,520.704407 531.104736,513.709900 
M458.768555,516.933838 
	C461.266693,517.659241 463.764801,518.384644 466.262939,519.110046 
	C466.476501,518.622375 466.690033,518.134766 466.903564,517.647095 
	C464.062042,512.606628 461.220490,507.566132 458.337738,502.452484 
	C463.842590,499.512451 466.464539,495.021759 465.078949,488.839386 
	C463.716705,482.761047 459.014465,480.235199 453.399048,479.615143 
	C448.970978,479.126190 444.414185,479.130219 439.992981,479.621124 
	C438.471954,479.789978 436.017212,482.059631 435.979370,483.424713 
	C435.657684,495.028564 435.795410,506.645172 435.795410,518.346558 
	C438.172485,518.346558 440.076569,518.346558 442.455872,518.346558 
	C442.455872,513.473206 442.455872,508.902344 442.455872,504.675903 
	C449.005554,502.549713 453.154816,504.458771 455.384521,510.538483 
	C456.121063,512.546753 457.373444,514.365845 458.768555,516.933838 
M412.469727,485.884857 
	C414.797974,485.881165 417.201263,486.223999 419.425873,485.741943 
	C420.730347,485.459351 421.750153,483.862946 422.898010,482.857544 
	C421.748077,481.804626 420.635712,479.893036 419.442017,479.840820 
	C412.636322,479.543091 405.802002,479.503326 399.000641,479.842072 
	C397.664764,479.908569 395.346893,481.993744 395.317902,483.192291 
	C395.037659,494.783905 395.149750,506.385040 395.149750,518.269592 
	C404.634766,518.269592 413.699829,518.269592 422.747772,518.269592 
	C423.743530,512.347229 423.584259,512.150269 417.982117,512.154236 
	C412.724243,512.157959 407.466400,512.155029 402.153381,512.155029 
	C402.153381,508.400604 402.153381,505.149139 402.153381,501.477295 
	C408.810913,501.477295 415.225555,501.477295 421.539764,501.477295 
	C422.975891,496.861877 421.940460,494.843445 417.060944,495.191772 
	C412.157257,495.541840 407.209076,495.268799 402.250916,495.268799 
	C402.250916,491.836517 402.250916,488.948395 402.250916,485.883698 
	C405.542236,485.883698 408.516388,485.883698 412.469727,485.884857 
M677.037781,514.206787 
	C672.529541,503.510529 668.139038,492.761261 663.377075,482.179169 
	C662.717285,480.712952 660.214355,479.262207 658.579529,479.278564 
	C656.958069,479.294800 654.570251,480.807281 653.874634,482.296814 
	C650.017517,490.556061 646.544250,498.995911 643.002502,507.400452 
	C641.495483,510.976562 640.141418,514.617126 638.717834,518.228394 
	C639.099304,518.701416 639.480713,519.174500 639.862122,519.647583 
	C642.128113,518.383728 645.990906,517.484741 646.377808,515.791504 
	C647.882690,509.205811 651.959778,508.072876 657.622253,508.700226 
	C659.263794,508.882080 660.966187,508.896118 662.600708,508.681976 
	C666.111755,508.221954 668.302185,509.424042 668.988220,513.043213 
	C669.996643,518.362854 673.112244,519.994751 678.461853,518.085449 
	C678.056763,516.995300 677.667603,515.948364 677.037781,514.206787 
M503.914337,510.228394 
	C507.639130,519.674438 507.639130,519.674438 514.575806,517.763367 
	C509.389069,505.695160 504.334564,493.647186 499.013641,481.718018 
	C497.275085,477.820312 491.743591,477.621765 490.071320,481.397247 
	C484.725494,493.466309 479.684418,505.670380 474.503265,517.875244 
	C479.759888,519.782715 482.514740,518.281311 483.790741,513.380310 
	C484.224213,511.715515 485.715057,509.095123 486.821503,509.043854 
	C492.385406,508.785950 497.981995,509.233612 503.914337,510.228394 
M358.338593,495.260132 
	C361.857452,484.424286 371.666260,481.690338 381.594147,488.778229 
	C384.947937,484.910187 384.715088,482.259918 380.108154,480.543274 
	C376.792389,479.307739 372.995087,478.840790 369.428528,478.905701 
	C360.772644,479.063293 354.035797,484.740326 351.775116,493.134430 
	C349.356628,502.114502 352.549530,511.491180 359.591309,516.088379 
	C366.718353,520.741272 377.625793,520.518372 384.033752,515.420593 
	C383.111664,513.829712 382.171875,512.208374 381.272247,510.656311 
	C366.957214,516.664673 357.414978,510.394989 358.338593,495.260132 
M611.499268,518.142151 
	C618.424194,520.113525 625.081055,519.919739 631.812866,515.985901 
	C630.605591,513.874023 629.664612,512.227966 628.757141,510.640594 
	C619.335632,514.623596 612.215820,513.421509 608.072083,507.446442 
	C604.398499,502.149261 604.844299,494.067291 609.070801,489.341644 
	C613.854431,483.992950 620.864502,483.663605 628.918335,488.409210 
	C632.549255,484.701477 631.787354,482.231232 626.325806,480.004059 
	C616.605713,476.040253 604.708557,480.615143 600.487732,489.939758 
	C595.495056,500.969604 599.834351,512.819275 611.499268,518.142151 
M579.532349,514.076172 
	C579.618164,515.494873 579.703918,516.913635 579.783142,518.223389 
	C582.186218,518.223389 584.078369,518.223389 585.877197,518.223389 
	C585.877197,505.247650 585.877197,492.659821 585.877197,480.068359 
	C581.383667,478.696991 579.369324,480.047363 579.436768,484.679504 
	C579.574951,494.172485 579.512817,503.668396 579.532349,514.076172 
M499.065430,470.330231 
	C495.346375,470.330231 491.627350,470.330231 487.530609,470.330231 
	C487.739471,472.363342 487.880157,473.732758 488.017212,475.066956 
	C492.839539,475.066956 497.247437,475.066956 503.161255,475.066956 
	C501.714386,472.937744 500.833466,471.641388 499.065430,470.330231 
z"/>
<path fill="#2BA69E" opacity="1.000000" stroke="none" 
	d="
M604.332397,130.156204 
	C629.003601,122.033356 652.450745,126.737000 675.456787,135.237854 
	C699.831238,144.244324 721.823547,157.701431 742.864319,172.779633 
	C743.934204,173.546341 744.866943,174.504440 746.633484,176.044800 
	C738.687683,181.494202 731.213928,186.963608 723.407715,191.908340 
	C701.096802,206.040924 677.885559,218.240967 651.648865,223.458069 
	C632.096313,227.346085 612.876831,227.584579 594.959534,217.093262 
	C578.868347,207.671219 569.866882,193.622910 570.377380,174.866516 
	C570.884644,156.228455 580.220520,142.445480 596.732605,133.665863 
	C599.078918,132.418304 601.545654,131.397232 604.332397,130.156204 
z"/>
<path fill="#2AA69F" opacity="1.000000" stroke="none" 
	d="
M256.809204,268.915771 
	C260.661102,247.451965 278.378754,231.408997 301.429718,227.940002 
	C318.071503,225.435562 334.309143,227.424530 350.204254,232.360397 
	C380.100800,241.644073 406.516113,257.542694 432.406433,276.030365 
	C430.414124,277.653168 428.873199,279.053284 427.191406,280.256470 
	C400.383362,299.435059 372.401672,316.328430 339.705994,323.515594 
	C320.515076,327.734131 301.404663,328.677216 283.230865,319.147247 
	C263.745544,308.929535 253.349228,289.279846 256.809204,268.915771 
z"/>
<path fill="#2AA69F" opacity="1.000000" stroke="none" 
	d="
M725.539246,827.566345 
	C704.387146,840.747742 682.827576,852.224304 658.875183,858.464172 
	C642.570923,862.711731 626.179810,864.283386 609.536377,860.021240 
	C587.648010,854.416077 573.526123,839.003113 570.599182,817.070679 
	C568.342407,800.160400 577.960632,781.430542 593.951599,772.203552 
	C610.786072,762.489807 628.945923,761.146118 647.658447,764.570374 
	C677.199524,769.976135 703.229309,783.557068 728.138672,799.624756 
	C734.258972,803.572693 740.183350,807.824219 747.134399,812.576477 
	C739.459656,817.902588 732.648193,822.629639 725.539246,827.566345 
z"/>
<path fill="#2AA79F" opacity="1.000000" stroke="none" 
	d="
M295.902008,664.848328 
	C314.332886,659.983887 332.000427,662.595154 349.422760,667.750793 
	C378.839630,676.455994 404.894409,691.736084 429.630737,709.490845 
	C430.409302,710.049622 431.045105,710.807251 432.277924,711.974304 
	C425.627716,716.636841 419.357117,721.274414 412.849915,725.552124 
	C389.338959,741.007690 364.603851,753.797913 336.741577,759.493652 
	C320.840363,762.744202 305.067169,763.002625 289.503021,757.389038 
	C269.301208,750.102722 256.103424,732.394409 256.107941,712.224792 
	C256.112488,691.947632 269.146820,674.170532 289.338013,666.937744 
	C291.370392,666.209656 293.446289,665.602966 295.902008,664.848328 
z"/>
<path fill="#2BA69F" opacity="1.000000" stroke="none" 
	d="
M245.927917,466.072083 
	C261.878571,474.042908 276.706757,483.106384 291.451935,494.095703 
	C286.180603,497.843597 281.587769,501.319214 276.789948,504.484161 
	C255.421173,518.580261 232.968567,530.307678 207.622467,535.565918 
	C194.390747,538.310913 181.246429,538.701721 168.259796,534.163025 
	C149.513947,527.611511 137.962769,512.285278 138.009872,493.930115 
	C138.056900,475.604919 149.726715,460.297821 168.629379,454.013123 
	C185.098663,448.537506 201.554962,450.300995 217.687149,455.231323 
	C227.187408,458.134766 236.295639,462.320953 245.927917,466.072083 
z"/>
<path fill="#2BA69E" opacity="1.000000" stroke="none" 
	d="
M377.840088,152.900879 
	C391.270294,137.662781 408.378265,134.198212 427.144623,136.487503 
	C454.169647,139.784210 477.294189,152.551086 499.558899,167.196213 
	C503.406525,169.727066 507.099731,172.492691 511.658966,175.710846 
	C504.948822,180.326752 499.043213,184.616394 492.915985,188.561859 
	C473.884583,200.816696 453.823334,210.698135 431.253265,214.604813 
	C417.829620,216.928299 404.770569,216.430069 392.281433,210.164490 
	C369.898468,198.935272 363.393768,173.850006 377.840088,152.900879 
z"/>
<path fill="#2BA69E" opacity="1.000000" stroke="none" 
	d="
M309.774689,364.231262 
	C312.765625,366.355621 315.466248,368.268402 318.860687,370.672607 
	C314.816223,373.682495 311.369812,376.473297 307.703979,378.937714 
	C288.406799,391.910370 268.203461,403.019501 245.324600,408.398071 
	C230.289856,411.932617 215.303391,412.953918 200.897232,405.909271 
	C185.572937,398.415680 177.042053,386.314728 177.891220,368.908081 
	C178.721130,351.896027 188.380585,340.974854 203.714417,334.827576 
	C218.962158,328.714752 234.403152,330.313293 249.777908,334.533020 
	C271.574615,340.515289 290.887512,351.547394 309.774689,364.231262 
z"/>
<path fill="#2BA69F" opacity="1.000000" stroke="none" 
	d="
M313.638275,621.640259 
	C293.300354,636.155212 272.128906,648.228149 248.044861,654.397217 
	C234.325226,657.911377 220.581436,659.252014 206.677689,654.949097 
	C178.717682,646.296082 168.476074,614.639404 187.046921,593.156555 
	C195.812088,583.017090 207.776749,578.951050 220.783783,578.005676 
	C236.414612,576.869568 251.108917,580.974487 265.466461,586.716309 
	C282.051300,593.348694 308.609253,608.777222 318.404846,617.823242 
	C316.861237,619.059814 315.391663,620.237122 313.638275,621.640259 
z"/>
<path fill="#E55947" opacity="1.000000" stroke="none" 
	d="
M652.469238,583.452820 
	C659.706726,569.884338 669.232605,565.549500 680.879517,570.881592 
	C683.123230,571.908752 685.734314,575.004639 685.885498,577.297180 
	C687.879028,607.531616 689.464111,637.792908 691.139771,668.048157 
	C691.202942,669.188232 691.147766,670.334839 691.147766,672.011169 
	C682.788208,672.011169 674.747559,672.011169 665.963867,672.011169 
	C664.938354,652.713501 663.920044,633.551941 662.901794,614.390381 
	C662.522705,614.260559 662.143677,614.130676 661.764587,614.000793 
	C660.903564,615.609009 659.951355,617.175720 659.196472,618.832336 
	C654.574524,628.974854 649.897766,639.094666 645.463562,649.319275 
	C644.071594,652.528992 642.137390,653.709595 638.638184,653.779480 
	C624.566895,654.060303 624.606628,654.155151 618.856689,641.059143 
	C614.860474,631.957642 610.743408,622.909241 606.680359,613.837036 
	C606.175720,613.902405 605.671082,613.967773 605.166443,614.033142 
	C604.165833,633.146484 603.165161,652.259827 602.142273,671.798828 
	C593.653992,671.798828 585.440552,671.798828 576.563538,671.798828 
	C577.016357,664.084106 577.462097,656.341980 577.926819,648.601013 
	C579.223938,626.995361 580.473999,605.386658 581.857422,583.786560 
	C582.428589,574.868164 585.407166,570.841797 592.288208,569.398010 
	C598.852722,568.020630 609.660583,569.501404 613.168335,577.232544 
	C618.802551,589.650513 624.886597,601.864319 630.778564,614.165344 
	C631.831604,616.363708 632.875244,618.566650 634.348999,621.661560 
	C640.632812,608.382385 646.456482,596.075745 652.469238,583.452820 
z"/>
<path fill="#2BA69F" opacity="1.000000" stroke="none" 
	d="
M457.405670,781.571167 
	C476.710480,789.333008 494.057831,799.694153 510.732300,812.062683 
	C509.661346,813.250427 509.038635,814.208557 508.180603,814.853516 
	C486.278595,831.316711 462.695221,844.514343 435.696442,850.449707 
	C418.863922,854.150085 402.182343,854.062256 387.104797,843.959900 
	C363.052032,827.843811 364.588104,793.985840 389.957520,779.984680 
	C405.301605,771.516296 421.533142,771.544617 438.001099,775.536255 
	C444.447906,777.098938 450.708344,779.430481 457.405670,781.571167 
z"/>
<path fill="#E65947" opacity="1.000000" stroke="none" 
	d="
M885.536255,632.000000 
	C885.556885,640.499451 885.583496,648.498901 885.595947,656.498352 
	C885.610352,665.769531 883.737000,669.248108 877.588318,671.413940 
	C870.331543,673.969971 861.012390,671.697693 856.769165,665.781128 
	C850.559692,657.123108 844.690063,648.220215 838.726074,639.387573 
	C833.787720,632.073792 828.934998,624.702332 824.008606,617.380432 
	C823.410156,616.491089 822.588989,615.751587 820.973328,613.931030 
	C820.753906,616.801514 820.526001,618.492310 820.510864,620.184998 
	C820.388794,633.843018 820.432312,647.503906 820.161987,661.158691 
	C820.016968,668.480408 816.618103,671.756165 809.378540,672.041687 
	C804.922363,672.217529 800.453613,672.074280 795.761108,672.074280 
	C795.598999,670.382263 795.367371,669.084595 795.366028,667.786682 
	C795.335388,637.622253 795.302551,607.457764 795.338928,577.293396 
	C795.347839,569.916931 795.835938,569.498047 803.233704,568.862976 
	C805.556091,568.663574 807.886597,568.545715 810.215576,568.437561 
	C816.197815,568.159424 820.471375,570.381348 823.859070,575.709167 
	C834.403992,592.292603 845.410278,608.582642 856.252136,624.976868 
	C857.115845,626.282776 858.091431,627.514648 859.902344,629.997559 
	C860.061890,626.751587 860.221558,625.021362 860.220337,623.291260 
	C860.209473,607.625916 860.162964,591.960571 860.143738,576.295227 
	C860.136597,570.468933 861.141052,569.294678 867.024536,568.960266 
	C871.011108,568.733582 875.026917,569.031738 879.015076,568.820129 
	C883.884338,568.561646 885.716980,570.383301 885.642517,575.505066 
	C885.371216,594.166626 885.535645,612.834473 885.536255,632.000000 
z"/>
<path fill="#E65846" opacity="1.000000" stroke="none" 
	d="
M805.109253,524.061340 
	C795.302185,535.816406 782.706787,542.394409 768.153442,543.331238 
	C753.445862,544.277954 738.599365,543.094727 723.815430,542.767700 
	C722.707092,542.743225 721.612488,542.101868 720.043579,541.596619 
	C720.043579,539.994019 720.043640,538.354431 720.043579,536.714844 
	C720.042542,509.716064 720.020264,482.717255 720.050293,455.718506 
	C720.063721,443.643951 724.567505,438.891724 736.718567,437.979767 
	C751.213013,436.891907 765.639648,436.352325 779.802979,440.838593 
	C804.044800,448.517181 818.056091,470.173004 815.405945,495.465363 
	C814.320679,505.823303 811.472412,515.328674 805.109253,524.061340 
M781.351257,512.743286 
	C781.521362,512.424011 781.691467,512.104797 781.854858,511.892944 
	C781.854858,511.892944 781.776123,511.819580 782.507141,511.861572 
	C782.887573,511.131836 783.268066,510.402100 783.811829,509.754211 
	C783.811829,509.754211 783.629272,509.749023 784.290710,509.644196 
	C784.487793,509.049438 784.684875,508.454681 784.933167,507.982056 
	C784.933167,507.982056 784.836731,507.891205 785.578918,507.877686 
	C785.995667,507.628265 786.624817,507.479736 786.798157,507.114746 
	C791.743225,496.701721 791.639221,486.128815 787.590942,475.497681 
	C787.369385,474.915833 786.318054,474.649872 785.740601,474.159424 
	C785.740601,474.159424 785.746704,474.276184 785.728943,473.710602 
	C785.438538,473.495026 785.148193,473.279419 784.953918,473.047791 
	C784.953918,473.047791 784.897949,473.127563 784.933105,472.458221 
	C784.490356,472.073853 784.047546,471.689484 783.668579,471.384094 
	C783.668579,471.384094 783.577454,471.339233 783.808777,470.606598 
	C782.427368,469.532837 781.045959,468.459076 779.666748,467.178864 
	C779.666748,467.178864 779.724426,467.377136 779.639526,466.720734 
	C779.057129,466.507568 778.474792,466.294373 777.988464,466.036194 
	C777.988464,466.036194 777.926270,466.122131 777.890137,465.391571 
	C776.890198,464.955841 775.890198,464.520111 774.984985,464.035522 
	C774.984985,464.035522 774.927063,464.124939 774.885803,463.385986 
	C768.123596,457.836639 759.913879,458.865295 752.067078,458.586334 
	C750.077271,458.515594 748.036438,459.879547 745.688843,460.923157 
	C745.688843,460.923157 745.247803,461.094391 744.535583,461.544678 
	C744.372498,462.008087 744.067749,462.471222 744.066711,462.934967 
	C744.028076,480.923859 743.988708,498.912933 744.073975,516.901367 
	C744.079041,517.971924 745.113098,519.037659 745.856567,520.051453 
	C745.856567,520.051453 745.915283,520.238464 746.182068,520.982910 
	C752.533447,521.120544 758.907227,521.618530 765.225525,521.225098 
	C767.890564,521.059143 770.438599,519.013977 773.210022,517.692444 
	C773.210022,517.692444 773.406067,517.779480 774.169922,517.876709 
	C774.705139,517.459412 775.240356,517.042053 775.826111,516.742737 
	C775.826111,516.742737 775.705444,516.699097 776.275085,516.711731 
	C776.491699,516.421021 776.708252,516.130310 776.943115,515.940979 
	C776.943115,515.940979 776.859436,515.880859 777.615906,515.968872 
	C778.346985,515.232605 779.078064,514.496338 779.880188,513.836609 
	C779.880188,513.836609 779.776733,513.851013 780.332031,513.741394 
	C780.515808,513.428833 780.699585,513.116211 780.905151,512.903870 
	C780.905151,512.903870 780.804565,512.883606 781.351257,512.743286 
z"/>
<path fill="#E55948" opacity="1.000000" stroke="none" 
	d="
M762.971191,608.893555 
	C765.131653,608.898743 766.800964,608.967407 768.463562,608.890381 
	C773.048523,608.677795 777.219666,609.435120 779.486023,614.019226 
	C782.216675,619.542358 781.028198,625.134827 778.952637,630.456482 
	C778.567139,631.444885 775.837646,631.930847 774.182983,631.947144 
	C761.020691,632.077026 747.853882,632.195496 734.694885,631.959106 
	C730.437622,631.882690 729.367554,633.375793 729.401428,637.406982 
	C729.494202,648.428650 729.329346,648.409119 740.562561,648.397644 
	C752.892883,648.385010 765.225159,648.543274 777.552429,648.354980 
	C781.523132,648.294312 782.873596,649.738586 782.745483,653.580933 
	C782.546753,659.543091 782.693054,665.516785 782.693054,671.963013 
	C756.493408,671.963013 730.778809,671.963013 704.692932,671.963013 
	C704.578369,670.410828 704.381531,668.972534 704.379517,667.533936 
	C704.341858,640.540588 704.320435,613.547241 704.323181,586.553894 
	C704.323364,584.728394 704.416138,582.884094 704.683044,581.080627 
	C705.827637,573.347046 709.880127,569.320496 717.662109,569.218140 
	C735.987915,568.977173 754.319092,568.987244 772.646606,569.114441 
	C778.983032,569.158386 782.536255,572.775635 782.891113,579.065674 
	C783.038940,581.685120 782.608337,584.352844 782.286682,586.979736 
	C781.759949,591.280945 779.579346,593.101685 774.924866,593.001587 
	C761.767822,592.718506 748.600159,592.924561 735.436707,592.937378 
	C733.652039,592.939087 731.867371,592.937622 729.794434,592.937622 
	C729.794434,598.490356 729.794434,603.386536 729.794434,608.890564 
	C740.908264,608.890564 751.692627,608.890564 762.971191,608.893555 
z"/>
<path fill="#E55947" opacity="1.000000" stroke="none" 
	d="
M831.122681,514.683105 
	C830.339355,502.024170 829.483582,489.765137 829.038574,477.491211 
	C828.731079,469.010040 828.975037,460.508270 829.003723,452.015808 
	C829.020386,447.087433 830.141479,442.596710 835.196472,440.496460 
	C841.171814,438.013824 847.315125,438.088135 853.015259,441.137390 
	C854.164612,441.752289 854.528809,444.616669 854.542908,446.449402 
	C854.667480,462.600922 854.508179,478.755341 854.722168,494.905060 
	C854.781006,499.343628 855.221375,503.951874 856.519958,508.163666 
	C859.402649,517.512939 867.030884,521.961243 877.997986,521.493713 
	C888.229919,521.057556 894.517517,516.422791 896.784607,506.814667 
	C897.881042,502.167786 898.245056,497.266815 898.306763,492.472687 
	C898.476196,479.320221 898.285461,466.163452 898.289917,453.008362 
	C898.291565,448.273682 898.421631,443.448914 903.444824,440.917511 
	C909.478088,437.877045 915.720703,438.331512 921.809570,440.673767 
	C922.795837,441.053131 923.730103,443.052460 923.725952,444.299805 
	C923.659302,464.435791 924.424866,484.640228 923.024719,504.691101 
	C920.761902,537.095398 895.716614,548.583923 869.214905,545.468628 
	C850.364441,543.252869 836.890503,533.953308 831.122681,514.683105 
z"/>
<path fill="#E45847" opacity="1.000000" stroke="none" 
	d="
M773.199097,356.718689 
	C781.336426,376.583710 789.343811,396.088379 797.699402,416.441040 
	C788.742188,416.441040 780.697144,416.575745 772.667908,416.281311 
	C771.587769,416.241669 770.217834,414.199646 769.616089,412.810242 
	C767.502625,407.929718 765.859436,402.838379 763.601013,398.032257 
	C762.960205,396.668579 760.850891,395.181702 759.383789,395.148865 
	C748.228088,394.899109 737.063110,395.091736 725.904541,394.919922 
	C723.033630,394.875732 721.718933,396.022919 720.860596,398.550934 
	C719.202942,403.433258 717.475281,408.301086 715.502197,413.061157 
	C714.953247,414.385529 713.475830,416.227325 712.364197,416.270142 
	C704.948364,416.555878 697.516174,416.418457 689.156982,416.418457 
	C690.602600,412.500244 691.687378,409.266632 692.975098,406.115906 
	C703.359985,380.707428 713.657715,355.262146 724.245728,329.938354 
	C729.773010,316.718536 736.797302,313.658142 750.800232,316.662048 
	C756.091003,317.796967 758.185913,321.471252 759.990845,325.578247 
	C764.475586,335.783203 768.725159,346.091522 773.199097,356.718689 
M741.339844,345.301147 
	C737.891113,354.322662 734.442383,363.344177 730.862000,372.710083 
	C739.090332,372.710083 746.340393,372.710083 754.496216,372.710083 
	C750.661316,362.923004 747.051208,353.691895 743.363159,344.492004 
	C743.314392,344.370422 742.276917,344.645233 741.339844,345.301147 
z"/>
<path fill="#2BA69E" opacity="1.000000" stroke="none" 
	d="
M519.832886,774.893188 
	C507.506927,778.147522 495.581238,779.342773 483.585876,775.253845 
	C468.755402,770.198364 460.353638,758.600525 460.872772,743.760864 
	C461.332733,730.612427 471.360779,719.059998 485.491180,715.111328 
	C496.590118,712.009827 507.510223,712.936340 518.465637,715.844238 
	C539.388245,721.397705 557.605530,732.084167 575.578735,745.388000 
	C558.490417,758.709045 540.513855,768.868347 519.832886,774.893188 
z"/>
<path fill="#2BA69E" opacity="1.000000" stroke="none" 
	d="
M567.195679,236.797195 
	C569.929688,238.722153 572.365417,240.443970 575.423035,242.605438 
	C572.780518,244.701813 570.601196,246.619553 568.238281,248.275391 
	C548.832703,261.874115 528.277344,272.829590 504.229645,275.481384 
	C494.544189,276.549469 485.256470,274.988190 476.839569,269.943512 
	C466.138885,263.530090 460.390625,254.114731 461.023987,241.409988 
	C461.617554,229.503143 467.954346,221.225021 478.226624,215.780075 
	C490.238922,209.412827 502.955231,209.890381 515.691772,212.673264 
	C534.522888,216.787827 551.085876,225.926727 567.195679,236.797195 
z"/>
<path fill="#E35747" opacity="1.000000" stroke="none" 
	d="
M674.565674,321.336090 
	C687.720825,328.211792 684.400024,339.057098 673.390137,347.361450 
	C668.203735,341.906189 661.784729,338.518585 654.129883,337.332092 
	C641.021545,335.300293 627.907349,341.453918 622.571106,352.471466 
	C617.144897,363.674835 619.561340,378.562195 628.860840,386.431244 
	C640.651245,396.408020 653.934448,395.448822 667.434814,390.301880 
	C668.825317,389.771729 670.119751,388.989807 672.643066,387.736542 
	C675.833313,393.358887 679.184875,398.983704 682.139832,404.809662 
	C682.534180,405.587128 681.221191,408.195068 680.188110,408.578247 
	C672.474731,411.439178 664.808044,415.144165 656.793823,416.324524 
	C640.802124,418.679810 625.358643,415.626495 612.419556,405.438995 
	C595.463318,392.088593 590.741028,373.899353 595.362793,353.501373 
	C599.831299,333.779358 613.039917,321.966888 632.438965,317.110199 
	C646.787720,313.517853 660.826599,314.473236 674.565674,321.336090 
z"/>
<path fill="#2DA59E" opacity="1.000000" stroke="none" 
	d="
M519.405640,146.341553 
	C511.063263,147.374893 503.746918,145.567810 497.020782,141.464676 
	C481.980072,132.289444 482.005035,110.811028 497.015717,101.593979 
	C505.360626,96.469948 514.377075,95.499672 523.910034,96.950836 
	C542.957397,99.850372 558.509399,109.792625 574.347290,121.244675 
	C557.486877,133.640869 540.591797,144.066147 519.405640,146.341553 
z"/>
<path fill="#2DA69E" opacity="1.000000" stroke="none" 
	d="
M711.670898,764.393921 
	C703.108826,757.483582 700.182129,748.831421 703.301941,738.779358 
	C706.611450,728.116028 715.048828,723.083008 725.507874,721.026428 
	C734.289917,719.299500 742.700500,721.228333 751.035950,723.842102 
	C765.369019,728.336548 777.948914,735.962585 790.562012,745.599548 
	C786.853149,748.282837 783.657288,750.755981 780.303772,752.992676 
	C767.281555,761.678040 753.337280,768.107239 737.657349,770.292725 
	C728.360107,771.588501 719.784973,769.855042 711.670898,764.393921 
z"/>
<path fill="#2DA69E" opacity="1.000000" stroke="none" 
	d="
M158.244186,585.226685 
	C145.126816,591.305603 132.144058,596.233704 117.612122,594.005981 
	C102.254669,591.651733 92.673950,579.713013 94.964783,565.409973 
	C96.413780,556.363037 102.226387,550.674622 110.321327,547.192078 
	C117.047874,544.298157 124.076538,543.722656 131.342972,544.921021 
	C150.586182,548.094421 166.806335,557.437195 183.368866,569.879883 
	C174.552017,575.281494 166.566849,580.173645 158.244186,585.226685 
z"/>
<path fill="#2DA69E" opacity="1.000000" stroke="none" 
	d="
M347.265198,804.085510 
	C331.881897,815.875793 315.569519,824.825500 296.420715,827.574707 
	C288.082764,828.771790 280.152588,827.405701 272.887024,823.112732 
	C264.959412,818.428711 260.793457,811.452576 261.004150,802.111694 
	C261.211243,792.930237 265.889893,786.351807 273.574524,781.954834 
	C283.400574,776.332642 293.910553,776.517700 304.519775,779.334412 
	C319.849182,783.404175 333.397705,791.032043 345.977417,800.488953 
	C346.846893,801.142517 347.033478,802.704590 347.265198,804.085510 
z"/>
<path fill="#2DA59E" opacity="1.000000" stroke="none" 
	d="
M104.674667,399.589233 
	C113.495338,393.576477 123.011864,392.695099 132.772797,394.432404 
	C151.439804,397.754852 167.055115,407.454132 182.841141,418.847778 
	C179.488541,421.284454 176.792419,423.410004 173.935730,425.291779 
	C160.916214,433.868011 147.240875,440.950623 131.627563,443.533875 
	C123.169441,444.933319 114.990326,444.142426 107.354156,440.097809 
	C91.495773,431.698120 90.050964,411.576874 104.674667,399.589233 
z"/>
<path fill="#2DA59E" opacity="1.000000" stroke="none" 
	d="
M721.620605,266.563629 
	C706.273010,261.342407 699.162659,249.084534 703.378357,235.622101 
	C706.430847,225.874344 716.867920,218.681808 728.890930,217.921143 
	C740.533875,217.184494 751.452393,220.202713 761.646179,225.260620 
	C771.523987,230.161713 780.868103,236.138458 791.554077,242.279190 
	C772.206665,256.122314 753.867432,267.542694 730.874939,267.898651 
	C727.923279,267.944366 724.958252,267.127075 721.620605,266.563629 
z"/>
<path fill="#2DA69E" opacity="1.000000" stroke="none" 
	d="
M489.659119,854.803101 
	C497.695679,844.089050 508.688690,840.921570 520.846375,842.362488 
	C540.783386,844.725403 557.350830,854.884644 574.529297,868.233948 
	C573.171082,868.852600 571.660095,869.261414 570.478027,870.122009 
	C556.480835,880.313171 541.471130,888.375732 524.275818,891.567871 
	C516.136169,893.078918 508.005676,892.682495 500.357513,888.990479 
	C486.648987,882.372986 482.222595,868.541748 489.659119,854.803101 
z"/>
<path fill="#2DA59E" opacity="1.000000" stroke="none" 
	d="
M274.000519,165.086670 
	C274.000519,165.086670 274.245300,164.846985 274.832550,164.890045 
	C278.278564,163.811066 281.137299,162.689041 283.996063,161.567017 
	C284.451263,161.417313 284.906494,161.267624 286.037720,161.418701 
	C300.343567,161.860687 313.213623,164.730591 325.065155,171.804764 
	C328.538849,173.878220 332.501862,175.131897 336.240601,176.761307 
	C336.240601,176.761307 336.141418,176.856522 336.220642,177.141281 
	C338.275970,178.549423 340.252075,179.672806 342.228210,180.796173 
	C342.228210,180.796188 342.137390,180.853470 342.210999,181.139816 
	C343.986908,183.782227 347.417633,185.725983 344.154907,189.266434 
	C344.154907,189.266434 344.147095,189.150391 343.837402,189.137054 
	C342.757751,189.857697 341.987823,190.591690 341.217896,191.325684 
	C341.217896,191.325668 341.202789,191.161804 340.901031,191.165237 
	C340.074524,191.786865 339.549805,192.405045 339.025055,193.023239 
	C339.025055,193.023239 339.001221,193.000000 338.644897,193.007416 
	C336.224274,194.410843 334.159943,195.806854 332.095581,197.202850 
	C332.095581,197.202835 332.093475,197.106247 331.761108,197.108398 
	C327.081848,199.100403 322.775269,201.184631 318.380096,203.061310 
	C307.855133,207.555283 297.032379,210.834091 285.425232,208.927765 
	C280.787354,208.166046 276.294617,206.520416 271.735809,205.277145 
	C271.735809,205.277145 271.838318,205.118530 271.771301,204.862198 
	C269.491150,202.736435 267.277954,200.867004 265.064789,198.997589 
	C265.064789,198.997589 264.827362,198.833740 264.855438,198.269958 
	C259.353210,184.626419 262.092865,175.347992 272.732910,167.061249 
	C273.314972,166.607910 273.585175,165.754089 274.000519,165.086670 
z"/>
<path fill="#2EA59E" opacity="1.000000" stroke="none" 
	d="
M316.083099,427.924927 
	C318.967499,429.905121 321.535828,431.703735 324.423645,433.726105 
	C323.710571,434.641815 323.348022,435.378601 322.762573,435.819031 
	C312.386353,443.625366 301.148346,449.843628 288.092682,451.281647 
	C283.190247,451.821594 277.780273,450.801422 273.057281,449.172058 
	C266.783691,447.007721 263.261719,441.868195 262.965118,435.030365 
	C262.653198,427.838928 265.814026,422.533325 272.200317,419.197968 
	C278.755951,415.774170 285.826324,415.230865 292.567688,417.599731 
	C300.508423,420.390045 308.051514,424.312042 316.083099,427.924927 
z"/>
<path fill="#2EA59E" opacity="1.000000" stroke="none" 
	d="
M233.121979,704.914185 
	C234.693878,706.153137 235.965256,707.188477 237.869949,708.739502 
	C224.168976,718.768982 210.434036,727.270691 193.039795,725.797363 
	C182.585098,724.911926 175.645142,717.077515 175.972885,707.786804 
	C176.287125,698.878967 184.117538,691.841553 194.550156,691.049133 
	C204.404007,690.300720 213.172424,693.820496 221.685684,698.100952 
	C225.532776,700.035278 229.117645,702.491211 233.121979,704.914185 
z"/>
<path fill="#2FA49D" opacity="1.000000" stroke="none" 
	d="
M204.284103,296.595123 
	C198.144836,296.235992 192.148239,296.662262 186.777222,295.030060 
	C179.553894,292.834930 175.790512,286.271301 175.952438,279.320404 
	C176.107895,272.648285 180.485367,265.859833 187.514328,264.067383 
	C192.955399,262.679840 199.039001,262.297211 204.583618,263.138245 
	C217.034653,265.026855 227.400818,271.676178 237.690475,279.727325 
	C227.530624,287.863007 216.905197,293.673279 204.284103,296.595123 
z"/>
<path fill="#2EA59E" opacity="1.000000" stroke="none" 
	d="
M290.333191,537.362732 
	C303.205566,540.081482 313.951691,546.104065 324.834290,554.355896 
	C320.616943,557.238281 317.153900,560.384705 313.096710,562.211487 
	C305.289093,565.726929 297.291656,568.991577 289.092987,571.411926 
	C282.873260,573.248108 276.519135,571.768860 270.934875,568.233459 
	C265.644165,564.883972 262.688141,560.060608 262.989960,553.677429 
	C263.298706,547.147217 266.382568,541.685791 272.463501,539.667908 
	C277.944000,537.849365 284.069885,537.975830 290.333191,537.362732 
z"/>
<path fill="#2EA59E" opacity="1.000000" stroke="none" 
	d="
M621.693726,732.295654 
	C612.482422,720.975037 617.650513,706.450073 632.004578,704.234863 
	C638.134033,703.288879 644.892212,704.321106 651.009277,705.863892 
	C661.065979,708.400391 669.871155,713.829407 678.871460,720.870239 
	C675.184326,723.379272 672.083923,725.737061 668.754639,727.708374 
	C658.657532,733.686829 648.141113,739.064087 636.032410,737.858459 
	C631.211609,737.378540 626.639832,734.397400 621.693726,732.295654 
z"/>
<path fill="#2FA49D" opacity="1.000000" stroke="none" 
	d="
M620.326660,277.544922 
	C612.112793,264.172241 620.471863,250.341202 636.966553,250.271500 
	C642.786804,250.246902 648.966370,251.646133 654.360657,253.889191 
	C662.556335,257.297089 670.210144,262.007996 679.134766,266.714172 
	C666.429688,276.885925 653.891357,283.519867 639.065857,284.813171 
	C631.978943,285.431366 625.615112,283.117676 620.326660,277.544922 
z"/>
<path fill="#24231F" opacity="1.000000" stroke="none" 
	d="
M531.097778,514.149475 
	C531.555603,520.704407 527.352356,518.249756 523.863708,518.608704 
	C524.746094,506.440643 525.523132,494.707001 526.558228,482.996155 
	C526.664124,481.797516 528.451721,479.707794 529.225708,479.809357 
	C531.272339,480.077972 534.104980,480.778839 534.997070,482.276947 
	C538.305359,487.832581 540.954773,493.780273 543.859741,499.576630 
	C544.144226,500.144135 544.484497,500.683716 545.174622,501.896729 
	C548.058716,496.001587 550.669617,490.605927 553.341919,485.240845 
	C554.080200,483.758545 554.678162,481.872467 555.921143,481.061462 
	C557.417603,480.085083 559.615356,479.544464 561.348999,479.820953 
	C562.320007,479.975800 563.557983,482.117249 563.666138,483.445801 
	C564.597595,494.888092 565.298828,506.349091 566.097839,518.237183 
	C563.863220,518.237183 561.821960,518.237183 559.296387,518.237183 
	C558.772156,509.812714 558.242188,501.295227 557.712158,492.777740 
	C557.296570,492.652405 556.880920,492.527069 556.465332,492.401733 
	C554.042542,497.474396 551.749023,502.615662 549.117004,507.577301 
	C548.341370,509.039429 546.520203,511.028046 545.334839,510.927582 
	C543.728516,510.791412 541.694336,509.192047 540.859131,507.664917 
	C538.130859,502.676331 535.863220,497.435822 532.265625,492.540710 
	C531.878662,499.597107 531.491699,506.653503 531.097778,514.149475 
z"/>
<path fill="#CA675A" opacity="1.000000" stroke="none" 
	d="
M811.484497,328.762543 
	C811.474915,327.823181 811.465332,326.883820 811.600220,325.387207 
	C811.829590,324.493713 811.773560,324.182953 811.576599,323.897644 
	C812.110291,317.816284 815.445984,313.743530 821.305542,312.766937 
	C839.656067,309.708557 858.182556,308.164124 875.926819,315.262543 
	C899.415100,324.658813 904.071106,356.102417 884.637390,372.338989 
	C881.440613,375.009796 881.037537,376.882660 883.137817,380.599121 
	C888.780884,390.584473 893.861633,400.888763 899.106995,411.096527 
	C899.907593,412.654388 900.397156,414.372070 901.407471,416.993805 
	C892.444275,416.993805 884.334412,417.270630 876.270935,416.782196 
	C874.452759,416.672058 872.198792,414.214569 871.167847,412.290009 
	C866.537537,403.646332 862.202332,394.840820 857.921387,386.015778 
	C856.429749,382.940613 854.452942,381.477692 850.908752,381.794769 
	C847.773132,382.075226 844.571045,381.971802 841.426941,381.703094 
	C837.820190,381.394836 836.829590,382.969269 836.879578,386.342194 
	C837.026855,396.283234 836.932129,406.227875 836.932129,417.564697 
	C827.987488,416.948853 819.715454,416.379333 811.564697,415.157776 
	C811.609253,413.590790 811.532471,412.675812 811.455688,411.760834 
	C811.452698,411.422424 811.449646,411.084045 811.625488,410.026245 
	C811.701172,394.125153 811.598022,378.943481 811.494751,363.761810 
	C811.493225,362.821869 811.491638,361.881927 811.654663,360.121826 
	C811.707703,349.121979 811.596069,338.942261 811.484497,328.762543 
M879.474854,377.871124 
	C879.982971,376.121033 879.925110,373.559723 881.088135,372.748413 
	C890.922302,365.887848 893.870667,356.372375 894.198303,344.788452 
	C894.671936,328.039612 880.572205,317.087250 866.912292,313.993286 
	C854.248840,311.125000 841.508240,312.949738 828.816162,313.123016 
	C818.975098,313.257385 813.150269,318.393066 813.087769,326.778748 
	C812.879272,354.748566 813.032898,382.720947 812.971863,410.692169 
	C812.964722,413.969818 814.379944,415.140808 817.510925,415.033356 
	C821.335815,414.902130 825.187683,414.762024 828.993103,415.064331 
	C833.496582,415.422089 835.299988,413.930023 835.096313,409.182068 
	C834.761169,401.371155 835.079834,393.534332 834.975525,385.710388 
	C834.922363,381.729736 836.588745,379.843170 840.635315,379.974182 
	C844.128113,380.087280 847.645752,380.224091 851.119080,379.941376 
	C855.195923,379.609558 857.712036,381.329437 859.448608,384.849243 
	C863.684082,393.433990 867.922546,402.020325 872.382141,410.488953 
	C873.301270,412.234375 875.103882,414.630005 876.641907,414.740417 
	C883.218872,415.212677 889.849243,414.941589 897.559204,414.941589 
	C894.103638,400.921692 885.944397,390.209198 879.474854,377.871124 
z"/>
<path fill="#24231F" opacity="1.000000" stroke="none" 
	d="
M458.579224,516.602661 
	C457.373444,514.365845 456.121063,512.546753 455.384521,510.538483 
	C453.154816,504.458771 449.005554,502.549713 442.455872,504.675903 
	C442.455872,508.902344 442.455872,513.473206 442.455872,518.346558 
	C440.076569,518.346558 438.172485,518.346558 435.795410,518.346558 
	C435.795410,506.645172 435.657684,495.028564 435.979370,483.424713 
	C436.017212,482.059631 438.471954,479.789978 439.992981,479.621124 
	C444.414185,479.130219 448.970978,479.126190 453.399048,479.615143 
	C459.014465,480.235199 463.716705,482.761047 465.078949,488.839386 
	C466.464539,495.021759 463.842590,499.512451 458.337738,502.452484 
	C461.220490,507.566132 464.062042,512.606628 466.903564,517.647095 
	C466.690033,518.134766 466.476501,518.622375 466.262939,519.110046 
	C463.764801,518.384644 461.266693,517.659241 458.579224,516.602661 
M452.906921,498.076233 
	C456.687286,497.171478 458.599182,494.868958 458.205414,490.900543 
	C457.784943,486.663361 454.522400,485.616150 451.169434,485.162903 
	C448.437927,484.793701 445.616791,485.087830 442.564209,485.087830 
	C442.564209,489.572662 442.564209,493.641418 442.564209,498.202362 
	C445.821747,498.202362 448.924927,498.202362 452.906921,498.076233 
z"/>
<path fill="#272622" opacity="1.000000" stroke="none" 
	d="
M411.980103,485.884277 
	C408.516388,485.883698 405.542236,485.883698 402.250916,485.883698 
	C402.250916,488.948395 402.250916,491.836517 402.250916,495.268799 
	C407.209076,495.268799 412.157257,495.541840 417.060944,495.191772 
	C421.940460,494.843445 422.975891,496.861877 421.539764,501.477295 
	C415.225555,501.477295 408.810913,501.477295 402.153381,501.477295 
	C402.153381,505.149139 402.153381,508.400604 402.153381,512.155029 
	C407.466400,512.155029 412.724243,512.157959 417.982117,512.154236 
	C423.584259,512.150269 423.743530,512.347229 422.747772,518.269592 
	C413.699829,518.269592 404.634766,518.269592 395.149750,518.269592 
	C395.149750,506.385040 395.037659,494.783905 395.317902,483.192291 
	C395.346893,481.993744 397.664764,479.908569 399.000641,479.842072 
	C405.802002,479.503326 412.636322,479.543091 419.442017,479.840820 
	C420.635712,479.893036 421.748077,481.804626 422.898010,482.857544 
	C421.750153,483.862946 420.730347,485.459351 419.425873,485.741943 
	C417.201263,486.223999 414.797974,485.881165 411.980103,485.884277 
z"/>
<path fill="#272622" opacity="1.000000" stroke="none" 
	d="
M677.158142,514.554077 
	C677.667603,515.948364 678.056763,516.995300 678.461853,518.085449 
	C673.112244,519.994751 669.996643,518.362854 668.988220,513.043213 
	C668.302185,509.424042 666.111755,508.221954 662.600708,508.681976 
	C660.966187,508.896118 659.263794,508.882080 657.622253,508.700226 
	C651.959778,508.072876 647.882690,509.205811 646.377808,515.791504 
	C645.990906,517.484741 642.128113,518.383728 639.862122,519.647583 
	C639.480713,519.174500 639.099304,518.701416 638.717834,518.228394 
	C640.141418,514.617126 641.495483,510.976562 643.002502,507.400452 
	C646.544250,498.995911 650.017517,490.556061 653.874634,482.296814 
	C654.570251,480.807281 656.958069,479.294800 658.579529,479.278564 
	C660.214355,479.262207 662.717285,480.712952 663.377075,482.179169 
	C668.139038,492.761261 672.529541,503.510529 677.158142,514.554077 
M657.646606,488.283875 
	C655.740784,492.957062 653.834900,497.630249 651.783691,502.659912 
	C656.488770,502.659912 660.508240,502.659912 665.597656,502.659912 
	C662.853821,497.240631 660.420105,492.433746 657.646606,488.283875 
z"/>
<path fill="#272622" opacity="1.000000" stroke="none" 
	d="
M503.740723,509.830963 
	C497.981995,509.233612 492.385406,508.785950 486.821503,509.043854 
	C485.715057,509.095123 484.224213,511.715515 483.790741,513.380310 
	C482.514740,518.281311 479.759888,519.782715 474.503265,517.875244 
	C479.684418,505.670380 484.725494,493.466309 490.071320,481.397247 
	C491.743591,477.621765 497.275085,477.820312 499.013641,481.718018 
	C504.334564,493.647186 509.389069,505.695160 514.575806,517.763367 
	C507.639130,519.674438 507.639130,519.674438 503.740723,509.830963 
M493.490662,488.242950 
	C491.573853,492.966980 489.657043,497.691010 487.598389,502.764587 
	C492.380066,502.764587 496.480347,502.764587 501.694427,502.764587 
	C498.920380,497.374847 496.419952,492.516724 493.490662,488.242950 
z"/>
<path fill="#24231F" opacity="1.000000" stroke="none" 
	d="
M358.265045,495.662567 
	C357.414978,510.394989 366.957214,516.664673 381.272247,510.656311 
	C382.171875,512.208374 383.111664,513.829712 384.033752,515.420593 
	C377.625793,520.518372 366.718353,520.741272 359.591309,516.088379 
	C352.549530,511.491180 349.356628,502.114502 351.775116,493.134430 
	C354.035797,484.740326 360.772644,479.063293 369.428528,478.905701 
	C372.995087,478.840790 376.792389,479.307739 380.108154,480.543274 
	C384.715088,482.259918 384.947937,484.910187 381.594147,488.778229 
	C371.666260,481.690338 361.857452,484.424286 358.265045,495.662567 
z"/>
<path fill="#24231F" opacity="1.000000" stroke="none" 
	d="
M611.122009,518.045776 
	C599.834351,512.819275 595.495056,500.969604 600.487732,489.939758 
	C604.708557,480.615143 616.605713,476.040253 626.325806,480.004059 
	C631.787354,482.231232 632.549255,484.701477 628.918335,488.409210 
	C620.864502,483.663605 613.854431,483.992950 609.070801,489.341644 
	C604.844299,494.067291 604.398499,502.149261 608.072083,507.446442 
	C612.215820,513.421509 619.335632,514.623596 628.757141,510.640594 
	C629.664612,512.227966 630.605591,513.874023 631.812866,515.985901 
	C625.081055,519.919739 618.424194,520.113525 611.122009,518.045776 
z"/>
<path fill="#24231F" opacity="1.000000" stroke="none" 
	d="
M579.532715,513.619629 
	C579.512817,503.668396 579.574951,494.172485 579.436768,484.679504 
	C579.369324,480.047363 581.383667,478.696991 585.877197,480.068359 
	C585.877197,492.659821 585.877197,505.247650 585.877197,518.223389 
	C584.078369,518.223389 582.186218,518.223389 579.783142,518.223389 
	C579.703918,516.913635 579.618164,515.494873 579.532715,513.619629 
z"/>
<path fill="#2FA49D" opacity="1.000000" stroke="none" 
	d="
M271.882599,205.578400 
	C276.294617,206.520416 280.787354,208.166046 285.425232,208.927765 
	C297.032379,210.834091 307.855133,207.555283 318.380096,203.061310 
	C322.775269,201.184631 327.081848,199.100403 331.804932,197.128693 
	C316.684113,206.901855 300.356171,213.595123 281.542877,209.947662 
	C278.233246,209.305984 275.193665,207.271103 271.882599,205.578400 
z"/>
<path fill="#2FA49D" opacity="1.000000" stroke="none" 
	d="
M336.090820,176.468979 
	C332.501862,175.131897 328.538849,173.878220 325.065155,171.804764 
	C313.213623,164.730591 300.343567,161.860687 286.399719,161.466858 
	C297.145142,159.416748 307.534180,162.157288 317.495422,166.462372 
	C323.855469,169.211090 329.806580,172.905975 336.090820,176.468979 
z"/>
<path fill="#272622" opacity="1.000000" stroke="none" 
	d="
M499.509003,470.337616 
	C500.833466,471.641388 501.714386,472.937744 503.161255,475.066956 
	C497.247437,475.066956 492.839539,475.066956 488.017212,475.066956 
	C487.880157,473.732758 487.739471,472.363342 487.530609,470.330231 
	C491.627350,470.330231 495.346375,470.330231 499.509003,470.337616 
z"/>
<path fill="#2FA49D" opacity="1.000000" stroke="none" 
	d="
M273.656494,165.115845 
	C273.585175,165.754089 273.314972,166.607910 272.732910,167.061249 
	C262.092865,175.347992 259.353210,184.626419 264.865204,198.126053 
	C256.742523,187.619080 260.523956,172.699402 273.656494,165.115845 
z"/>
<path fill="#F3A79D" opacity="1.000000" stroke="none" 
	d="
M811.297729,364.138733 
	C811.598022,378.943481 811.701172,394.125153 811.646057,409.773163 
	C811.302612,403.797668 811.002014,397.356567 810.960571,390.913818 
	C810.903931,382.115082 811.044556,373.315094 811.297729,364.138733 
z"/>
<path fill="#F3A79D" opacity="1.000000" stroke="none" 
	d="
M811.289429,329.140137 
	C811.596069,338.942261 811.707703,349.121979 811.666992,359.769470 
	C811.374573,349.997406 811.234497,339.757568 811.289429,329.140137 
z"/>
<path fill="#2FA49D" opacity="1.000000" stroke="none" 
	d="
M344.498108,189.206451 
	C347.417633,185.725983 343.986908,183.782227 342.211548,181.086121 
	C344.468384,182.206528 346.798248,183.666946 349.713745,185.494431 
	C347.679138,187.019424 346.260223,188.082947 344.498108,189.206451 
z"/>
<path fill="#2FA49D" opacity="1.000000" stroke="none" 
	d="
M283.629761,161.512711 
	C281.137299,162.689041 278.278564,163.811066 275.003662,164.898193 
	C277.479523,163.728333 280.371490,162.593369 283.629761,161.512711 
z"/>
<path fill="#2FA49D" opacity="1.000000" stroke="none" 
	d="
M265.134064,199.324615 
	C267.277954,200.867004 269.491150,202.736435 271.752167,204.954666 
	C269.601135,203.419525 267.402222,201.535583 265.134064,199.324615 
z"/>
<path fill="#2FA49D" opacity="1.000000" stroke="none" 
	d="
M332.446716,197.163116 
	C334.159943,195.806854 336.224274,194.410843 338.654358,193.020416 
	C336.946014,194.391785 334.871948,195.757584 332.446716,197.163116 
z"/>
<path fill="#2FA49D" opacity="1.000000" stroke="none" 
	d="
M342.088196,180.497223 
	C340.252075,179.672806 338.275970,178.549423 336.232910,177.073639 
	C338.093353,177.880264 340.020782,179.039276 342.088196,180.497223 
z"/>
<path fill="#2FA49D" opacity="1.000000" stroke="none" 
	d="
M341.536011,191.277206 
	C341.987823,190.591690 342.757751,189.857697 343.883057,189.173080 
	C343.443634,189.891220 342.648865,190.559967 341.536011,191.277206 
z"/>
<path fill="#2FA49D" opacity="1.000000" stroke="none" 
	d="
M339.323730,192.972733 
	C339.549805,192.405045 340.074524,191.786865 340.946533,191.233795 
	C340.736694,191.840012 340.179565,192.381119 339.323730,192.972733 
z"/>
<path fill="#F3A79D" opacity="1.000000" stroke="none" 
	d="
M811.280029,412.059509 
	C811.532471,412.675812 811.609253,413.590790 811.479492,414.788269 
	C811.216736,414.166565 811.160583,413.262360 811.280029,412.059509 
z"/>
<path fill="#F3A79D" opacity="1.000000" stroke="none" 
	d="
M811.407776,324.089966 
	C811.773560,324.182953 811.829590,324.493713 811.609802,325.034912 
	C811.396240,324.920685 811.317627,324.601501 811.407776,324.089966 
z"/>
<path fill="#FEF9F8" opacity="1.000000" stroke="none" 
	d="
M745.247803,461.094391 
	C745.247803,461.094391 745.688843,460.923157 746.258179,460.801514 
	C756.496948,459.357941 765.885315,460.327789 774.927063,464.124939 
	C774.927063,464.124939 774.984985,464.035522 775.088989,464.337097 
	C776.104065,465.133148 777.015198,465.627625 777.926270,466.122131 
	C777.926270,466.122131 777.988464,466.036194 778.073486,466.326477 
	C778.680481,466.870239 779.202454,467.123688 779.724426,467.377136 
	C779.724426,467.377136 779.666748,467.178864 779.773315,467.575989 
	C781.112366,469.095154 782.344910,470.217194 783.577454,471.339233 
	C783.577454,471.339233 783.668579,471.384094 783.671509,471.640381 
	C784.082275,472.306976 784.490112,472.717285 784.897949,473.127563 
	C784.897949,473.127563 784.953918,473.047791 784.946655,473.329895 
	C785.208496,473.833405 785.477600,474.054779 785.746704,474.276184 
	C785.746704,474.276184 785.740601,474.159424 785.734131,474.575867 
	C790.365479,486.092224 790.095947,497.059265 784.836731,507.891205 
	C784.836731,507.891205 784.933167,507.982056 784.634644,508.054169 
	C784.100525,508.667206 783.864929,509.208130 783.629272,509.749023 
	C783.629272,509.749023 783.811829,509.754211 783.451416,509.815338 
	C782.652771,510.524170 782.214478,511.171875 781.776123,511.819580 
	C781.776123,511.819580 781.854858,511.892944 781.593994,511.920807 
	C781.156921,512.260315 780.980774,512.571960 780.804565,512.883606 
	C780.804565,512.883606 780.905151,512.903870 780.627869,512.927673 
	C780.159302,513.251282 779.968018,513.551147 779.776733,513.851013 
	C779.776733,513.851013 779.880188,513.836609 779.538696,513.863037 
	C778.417969,514.553284 777.638733,515.217102 776.859497,515.880859 
	C776.859436,515.880859 776.943115,515.940979 776.661133,515.923889 
	C776.154602,516.170898 775.929993,516.434998 775.705444,516.699097 
	C775.705444,516.699097 775.826111,516.742737 775.458984,516.706055 
	C774.529968,517.039368 773.968018,517.409424 773.406067,517.779480 
	C773.406067,517.779480 773.210022,517.692444 772.715149,517.774719 
	C763.451965,518.650818 754.683594,519.444641 745.915283,520.238464 
	C745.915283,520.238464 745.856567,520.051453 745.745911,519.602173 
	C745.506104,499.800049 745.376953,480.447235 745.247803,461.094391 
z"/>
<path fill="#CA675A" opacity="1.000000" stroke="none" 
	d="
M744.891724,461.319519 
	C745.376953,480.447235 745.506104,499.800049 745.651733,519.629272 
	C745.113098,519.037659 744.079041,517.971924 744.073975,516.901367 
	C743.988708,498.912933 744.028076,480.923859 744.066711,462.934967 
	C744.067749,462.471222 744.372498,462.008087 744.891724,461.319519 
z"/>
<path fill="#CA675A" opacity="1.000000" stroke="none" 
	d="
M785.207825,507.884460 
	C790.095947,497.059265 790.365479,486.092224 785.690308,474.614563 
	C786.318054,474.649872 787.369385,474.915833 787.590942,475.497681 
	C791.639221,486.128815 791.743225,496.701721 786.798157,507.114746 
	C786.624817,507.479736 785.995667,507.628265 785.207825,507.884460 
z"/>
<path fill="#CA675A" opacity="1.000000" stroke="none" 
	d="
M746.048706,520.610718 
	C754.683594,519.444641 763.451965,518.650818 772.630066,517.840027 
	C770.438599,519.013977 767.890564,521.059143 765.225525,521.225098 
	C758.907227,521.618530 752.533447,521.120544 746.048706,520.610718 
z"/>
<path fill="#CA675A" opacity="1.000000" stroke="none" 
	d="
M774.906433,463.755463 
	C765.885315,460.327789 756.496948,459.357941 746.423340,460.632080 
	C748.036438,459.879547 750.077271,458.515594 752.067078,458.586334 
	C759.913879,458.865295 768.123596,457.836639 774.906433,463.755463 
z"/>
<path fill="#CA675A" opacity="1.000000" stroke="none" 
	d="
M783.693115,470.972900 
	C782.344910,470.217194 781.112366,469.095154 779.772217,467.679199 
	C781.045959,468.459076 782.427368,469.532837 783.693115,470.972900 
z"/>
<path fill="#CA675A" opacity="1.000000" stroke="none" 
	d="
M777.908203,465.756836 
	C777.015198,465.627625 776.104065,465.133148 775.041626,464.361511 
	C775.890198,464.520111 776.890198,464.955841 777.908203,465.756836 
z"/>
<path fill="#CA675A" opacity="1.000000" stroke="none" 
	d="
M777.237671,515.924927 
	C777.638733,515.217102 778.417969,514.553284 779.503174,513.824829 
	C779.078064,514.496338 778.346985,515.232605 777.237671,515.924927 
z"/>
<path fill="#CA675A" opacity="1.000000" stroke="none" 
	d="
M782.141602,511.840576 
	C782.214478,511.171875 782.652771,510.524170 783.369812,509.774414 
	C783.268066,510.402100 782.887573,511.131836 782.141602,511.840576 
z"/>
<path fill="#CA675A" opacity="1.000000" stroke="none" 
	d="
M779.682007,467.048950 
	C779.202454,467.123688 778.680481,466.870239 778.025452,466.348999 
	C778.474792,466.294373 779.057129,466.507568 779.682007,467.048950 
z"/>
<path fill="#CA675A" opacity="1.000000" stroke="none" 
	d="
M773.787964,517.828125 
	C773.968018,517.409424 774.529968,517.039368 775.433716,516.647034 
	C775.240356,517.042053 774.705139,517.459412 773.787964,517.828125 
z"/>
<path fill="#CA675A" opacity="1.000000" stroke="none" 
	d="
M784.915527,472.792908 
	C784.490112,472.717285 784.082275,472.306976 783.639648,471.600891 
	C784.047546,471.689484 784.490356,472.073853 784.915527,472.792908 
z"/>
<path fill="#CA675A" opacity="1.000000" stroke="none" 
	d="
M783.959961,509.696594 
	C783.864929,509.208130 784.100525,508.667206 784.609009,507.993103 
	C784.684875,508.454681 784.487793,509.049438 783.959961,509.696594 
z"/>
<path fill="#CA675A" opacity="1.000000" stroke="none" 
	d="
M775.990234,516.705444 
	C775.929993,516.434998 776.154602,516.170898 776.651978,515.873169 
	C776.708252,516.130310 776.491699,516.421021 775.990234,516.705444 
z"/>
<path fill="#CA675A" opacity="1.000000" stroke="none" 
	d="
M780.054382,513.796204 
	C779.968018,513.551147 780.159302,513.251282 780.616943,512.877563 
	C780.699585,513.116211 780.515808,513.428833 780.054382,513.796204 
z"/>
<path fill="#CA675A" opacity="1.000000" stroke="none" 
	d="
M781.077881,512.813477 
	C780.980774,512.571960 781.156921,512.260315 781.597351,511.867096 
	C781.691467,512.104797 781.521362,512.424011 781.077881,512.813477 
z"/>
<path fill="#CA675A" opacity="1.000000" stroke="none" 
	d="
M785.737793,473.993408 
	C785.477600,474.054779 785.208496,473.833405 784.898560,473.337921 
	C785.148193,473.279419 785.438538,473.495026 785.737793,473.993408 
z"/>
<path fill="#FFF2EF" opacity="1.000000" stroke="none" 
	d="
M741.520386,345.018066 
	C742.276917,344.645233 743.314392,344.370422 743.363159,344.492004 
	C747.051208,353.691895 750.661316,362.923004 754.496216,372.710083 
	C746.340393,372.710083 739.090332,372.710083 730.862000,372.710083 
	C734.442383,363.344177 737.891113,354.322662 741.520386,345.018066 
z"/>
<path fill="#E95644" opacity="1.000000" stroke="none" 
	d="
M879.644043,378.212646 
	C885.944397,390.209198 894.103638,400.921692 897.559204,414.941589 
	C889.849243,414.941589 883.218872,415.212677 876.641907,414.740417 
	C875.103882,414.630005 873.301270,412.234375 872.382141,410.488953 
	C867.922546,402.020325 863.684082,393.433990 859.448608,384.849243 
	C857.712036,381.329437 855.195923,379.609558 851.119080,379.941376 
	C847.645752,380.224091 844.128113,380.087280 840.635315,379.974182 
	C836.588745,379.843170 834.922363,381.729736 834.975525,385.710388 
	C835.079834,393.534332 834.761169,401.371155 835.096313,409.182068 
	C835.299988,413.930023 833.496582,415.422089 828.993103,415.064331 
	C825.187683,414.762024 821.335815,414.902130 817.510925,415.033356 
	C814.379944,415.140808 812.964722,413.969818 812.971863,410.692169 
	C813.032898,382.720947 812.879272,354.748566 813.087769,326.778748 
	C813.150269,318.393066 818.975098,313.257385 828.816162,313.123016 
	C841.508240,312.949738 854.248840,311.125000 866.912292,313.993286 
	C880.572205,317.087250 894.671936,328.039612 894.198303,344.788452 
	C893.870667,356.372375 890.922302,365.887848 881.088135,372.748413 
	C879.925110,373.559723 879.982971,376.121033 879.644043,378.212646 
M846.532349,332.847443 
	C844.370544,332.910431 842.124329,332.642670 840.079651,333.164429 
	C838.914124,333.461823 837.261169,335.019012 837.224670,336.058044 
	C836.979370,343.038330 837.006226,350.035156 837.237183,357.016998 
	C837.268799,357.974457 838.927246,359.686859 839.820190,359.678833 
	C846.776550,359.616150 853.825378,359.821960 860.655701,358.742706 
	C866.755432,357.778931 869.834717,352.945862 869.953857,346.830475 
	C870.075256,340.599792 867.293823,335.976288 861.296814,334.399292 
	C856.870239,333.235260 852.114746,333.321991 846.532349,332.847443 
z"/>
<path fill="#FEF9F8" opacity="1.000000" stroke="none" 
	d="
M452.467529,498.139282 
	C448.924927,498.202362 445.821747,498.202362 442.564209,498.202362 
	C442.564209,493.641418 442.564209,489.572662 442.564209,485.087830 
	C445.616791,485.087830 448.437927,484.793701 451.169434,485.162903 
	C454.522400,485.616150 457.784943,486.663361 458.205414,490.900543 
	C458.599182,494.868958 456.687286,497.171478 452.467529,498.139282 
z"/>
<path fill="#FFF2EF" opacity="1.000000" stroke="none" 
	d="
M657.816467,487.955383 
	C660.420105,492.433746 662.853821,497.240631 665.597656,502.659912 
	C660.508240,502.659912 656.488770,502.659912 651.783691,502.659912 
	C653.834900,497.630249 655.740784,492.957062 657.816467,487.955383 
z"/>
<path fill="#FFF2EF" opacity="1.000000" stroke="none" 
	d="
M493.705078,487.950806 
	C496.419952,492.516724 498.920380,497.374847 501.694427,502.764587 
	C496.480347,502.764587 492.380066,502.764587 487.598389,502.764587 
	C489.657043,497.691010 491.573853,492.966980 493.705078,487.950806 
z"/>
<path fill="#FEF9F8" opacity="1.000000" stroke="none" 
	d="
M847.019043,332.849487 
	C852.114746,333.321991 856.870239,333.235260 861.296814,334.399292 
	C867.293823,335.976288 870.075256,340.599792 869.953857,346.830475 
	C869.834717,352.945862 866.755432,357.778931 860.655701,358.742706 
	C853.825378,359.821960 846.776550,359.616150 839.820190,359.678833 
	C838.927246,359.686859 837.268799,357.974457 837.237183,357.016998 
	C837.006226,350.035156 836.979370,343.038330 837.224670,336.058044 
	C837.261169,335.019012 838.914124,333.461823 840.079651,333.164429 
	C842.124329,332.642670 844.370544,332.910431 847.019043,332.849487 
z"/>
</svg>